<svg id="Layer_1" data-name="Layer 1" xmlns="http://www.w3.org/2000/svg" viewBox="0 0 328.26 46.69"><defs><style>.cls-1,.cls-3{fill:#201d5d;}.cls-2{fill:none;stroke:#201d5d;}.cls-3{fill-rule:evenodd;}</style></defs><title>SIPA_Logo</title><path class="cls-1" d="M53.86,34.76A8.75,8.75,0,0,1,51.09,28a9.13,9.13,0,0,1,2.56-6.24c1.37-1.37,3.45-2.45,7-2.45a19.51,19.51,0,0,1,3.31.27,20,20,0,0,0,2.33.34c.25,0,.3.11.3.25s-.07.46-.11,1.28,0,2-.07,2.35-.07.48-.21.48-.18-.16-.18-.48a3.16,3.16,0,0,0-1-2.33,7.6,7.6,0,0,0-4.57-1.3c-3,0-4.46.89-5.26,1.67-1.67,1.6-2.06,3.63-2.06,6a8.25,8.25,0,0,0,8.25,8.37c1.71,0,3.06-.21,4-1.14a4.33,4.33,0,0,0,.85-1.92c0-.25.09-.34.23-.34s.16.16.16.34a23.74,23.74,0,0,1-.5,2.93c-.14.43-.18.48-.59.66a13.23,13.23,0,0,1-4.11.53C58,37.23,55.66,36.38,53.86,34.76Z" transform="translate(-10.52 -11.61)"/><path class="cls-1" d="M77,21.94c4.52,0,8,2.77,8,7.29a7.78,7.78,0,0,1-8.07,7.93A7.45,7.45,0,0,1,69,29.53,7.69,7.69,0,0,1,77,21.94Zm.46,14.42c1.81,0,5.44-1,5.44-6.58,0-4.66-2.83-7.11-6-7.11-3.36,0-5.78,2.1-5.78,6.33C71.12,33.53,73.83,36.36,77.47,36.36Z" transform="translate(-10.52 -11.61)"/><path class="cls-1" d="M91,31.31c0,2.86,0,4,.41,4.36s1.1.46,2.67.46c1.05,0,1.94,0,2.42-.59a2.39,2.39,0,0,0,.48-1.1c0-.14.09-.25.21-.25s.14.09.14.3a12.28,12.28,0,0,1-.3,1.94c-.14.46-.2.53-1.28.53-1.44,0-2.56,0-3.5-.07s-1.6,0-2.19,0c-.09,0-.43,0-.82,0s-.85,0-1.17,0-.32,0-.32-.16a.15.15,0,0,1,.16-.16,2.92,2.92,0,0,0,.62-.09c.39-.09.44-.46.53-1a39.72,39.72,0,0,0,.11-4.21V27.84c0-3,0-3.57,0-4.18s-.16-1-.82-1.07a6.55,6.55,0,0,0-.69,0,.19.19,0,0,1-.16-.16c0-.11.09-.16.32-.16.91,0,2.17,0,2.29,0s1.6,0,2.22,0c.21,0,.32,0,.32.16a.17.17,0,0,1-.16.14l-.66,0c-.6.11-.71.41-.76,1.1s0,1.16,0,4.18Z" transform="translate(-10.52 -11.61)"/><path class="cls-1" d="M100.26,27.84c0-3,0-3.57,0-4.18s-.16-1-.82-1.07a6.55,6.55,0,0,0-.69,0,.19.19,0,0,1-.16-.16c0-.11.09-.16.32-.16.91,0,2.13,0,2.31,0s1.44,0,2,0c.23,0,.34,0,.34.16a.2.2,0,0,1-.18.16,2.35,2.35,0,0,0-.5,0c-.53.09-.64.43-.69,1.07s0,1.16,0,4.18v2.72c0,2.81.62,4,1.49,4.75a3.92,3.92,0,0,0,3,1.05A4.13,4.13,0,0,0,109.72,35c.94-1.12,1.14-2.72,1.14-4.71V27.84c0-3,0-3.57,0-4.18s-.14-1-.8-1.07a6.57,6.57,0,0,0-.69,0,.17.17,0,0,1-.16-.16c0-.11.09-.16.32-.16.89,0,2.06,0,2.17,0s1.1,0,1.69,0c.23,0,.32,0,.32.16a.17.17,0,0,1-.16.16,2.34,2.34,0,0,0-.5,0c-.55.11-.66.43-.71,1.07s0,1.16,0,4.18v2.08c0,2.1-.27,4.46-1.87,5.83a6.08,6.08,0,0,1-4.21,1.42A6.28,6.28,0,0,1,102,35.79c-1-.91-1.76-2.26-1.76-5.1Z" transform="translate(-10.52 -11.61)"/><path class="cls-1" d="M132.74,34.4c.07.69.21,1.74,1,2a4.22,4.22,0,0,0,1.3.18c.09,0,.16,0,.16.14s-.18.18-.41.18c-.46,0-2.7,0-3.43-.11-.48,0-.57-.12-.57-.21a.17.17,0,0,1,.14-.16c.11,0,.14-.32.09-.69l-1-9.83h0l-4.85,9.92c-.41.84-.52,1-.71,1s-.3-.18-.69-.89c-.53-1-1.85-3.45-2.35-4.5-.59-1.23-2.22-4.5-2.56-5.3h-.09L118,34.94c0,.3,0,.66,0,1a.54.54,0,0,0,.48.55,3.29,3.29,0,0,0,.78.11.17.17,0,0,1,.16.14c0,.14-.14.18-.36.18-.75,0-1.72-.07-1.87-.07s-1.14.07-1.69.07c-.21,0-.34,0-.34-.18s.09-.14.21-.14a4,4,0,0,0,.59-.07c.66-.12.69-.82.78-1.56l1.46-12.68c0-.21.11-.34.23-.34a.46.46,0,0,1,.41.3l6.08,12.07,5.85-12c.09-.18.18-.32.32-.32s.25.16.3.53Z" transform="translate(-10.52 -11.61)"/><path class="cls-1" d="M138.8,27.84c0-3,0-3.57,0-4.18s-.16-1-.82-1.12a6.45,6.45,0,0,0-.69,0c-.07,0-.16,0-.16-.11s.09-.16.32-.16c.91,0,2.22,0,2.33,0,.48,0,1.42,0,2.35,0,3.36,0,4.23,1.94,4.23,3,0,1.53-1,2.49-2,3.41,1.53.46,3.54,1.85,3.54,4S146.21,37,142.78,37c-.36,0-1.1,0-1.74-.07l-1.3,0s-.41,0-.82,0-.89,0-1.21,0-.32,0-.32-.16,0-.11.16-.11a5.84,5.84,0,0,0,.62-.09c.39-.07.43-.5.53-1.07a39.69,39.69,0,0,0,.11-4.21Zm1.74.41c0,.14,0,.18.14.21a6.11,6.11,0,0,0,1.23.09c1.12,0,1.55,0,2-.5a3,3,0,0,0,.78-2.08,2.85,2.85,0,0,0-2.83-3.13,5.84,5.84,0,0,0-1,.09c-.18,0-.25.09-.25.21Zm0,2.15c0,1.51,0,3.84,0,4.14.07.94.07,1.17.69,1.46a4.83,4.83,0,0,0,1.76.27,2.66,2.66,0,0,0,2.95-3,3.83,3.83,0,0,0-3.73-4c-.25,0-1.26,0-1.58,0-.07,0-.11,0-.11.14Z" transform="translate(-10.52 -11.61)"/><path class="cls-1" d="M154.9,31.26c0,1.87,0,3.41.09,4.21.07.57.14.94.73,1a8.36,8.36,0,0,0,.91.09.16.16,0,0,1,.16.16c0,.09-.09.16-.32.16-1.12,0-2.42-.07-2.51-.07s-1.37.07-2,.07c-.21,0-.32,0-.32-.16a.15.15,0,0,1,.16-.16,2.91,2.91,0,0,0,.62-.09c.39-.09.46-.46.53-1,.09-.8.11-2.33.11-4.21V27.84c0-3,0-3.57,0-4.18s-.21-1-.64-1.05a3.72,3.72,0,0,0-.62-.07.17.17,0,0,1-.16-.16c0-.11.09-.16.32-.16.66,0,1.92,0,2,0s1.39,0,2,0c.23,0,.32,0,.32.16a.19.19,0,0,1-.16.16,2.22,2.22,0,0,0-.5,0c-.55.11-.66.39-.71,1.07s0,1.16,0,4.18Z" transform="translate(-10.52 -11.61)"/><path class="cls-1" d="M165.94,22.6c.25-.64.34-.75.48-.75s.27.27.48.71c.37.82,3.59,8.84,4.82,11.79.73,1.74,1.28,2,1.71,2.13a2.82,2.82,0,0,0,.8.11c.11,0,.25,0,.25.16s-.23.16-.46.16-1.78,0-3.18,0c-.39,0-.71,0-.71-.14s0-.09.14-.14a.36.36,0,0,0,.18-.53l-1.8-4.46c0-.09-.07-.11-.18-.11h-4.64a.21.21,0,0,0-.21.16l-1.14,3.11a4,4,0,0,0-.3,1.3c0,.39.34.53.69.53h.18c.16,0,.2.07.2.16s-.11.16-.3.16c-.48,0-1.58-.07-1.81-.07s-1.21.07-2,.07c-.25,0-.39,0-.39-.16a.18.18,0,0,1,.18-.16,5.7,5.7,0,0,0,.59,0c.92-.11,1.3-.8,1.69-1.78Zm2.24,8.09c.09,0,.09,0,.07-.14l-2-5.33q-.17-.44-.34,0L164,30.56c0,.09,0,.14.07.14Z" transform="translate(-10.52 -11.61)"/><path class="cls-1" d="M190.12,37.11c-.3-.15-.33-.23-.33-.81,0-1.07.1-1.94.13-2.29s0-.36.18-.36.2.08.2.25a3.22,3.22,0,0,0,.08.79c.36,1.58,2,2.14,3.54,2.14,2.21,0,3.36-1.25,3.36-2.88s-.84-2.29-2.83-3.76l-1-.76c-2.42-1.81-3.21-3.13-3.21-4.63,0-2.55,2-4.07,5-4.07a10.79,10.79,0,0,1,2.32.25,2.88,2.88,0,0,0,.79.1c.18,0,.23,0,.23.15s-.1.81-.1,2.29c0,.33,0,.48-.18.48s-.18-.1-.2-.28a4,4,0,0,0-.33-1.07c-.15-.26-.89-1.07-2.9-1.07-1.63,0-3,.81-3,2.34,0,1.37.69,2.16,2.9,3.66l.64.43c2.72,1.86,3.66,3.36,3.66,5.22a4.22,4.22,0,0,1-2.09,3.69,6.86,6.86,0,0,1-3.56.77A8.22,8.22,0,0,1,190.12,37.11Z" transform="translate(-10.52 -11.61)"/><path class="cls-1" d="M206.87,31.13c0,2.09,0,3.79.1,4.68.08.64.15,1,.81,1.15a9.13,9.13,0,0,0,1,.1.17.17,0,0,1,.18.18c0,.1-.1.18-.36.18-1.25,0-2.7-.08-2.8-.08s-1.53.08-2.21.08c-.23,0-.36-.05-.36-.18a.17.17,0,0,1,.18-.18,3.19,3.19,0,0,0,.69-.1c.43-.1.51-.51.59-1.15.1-.89.13-2.59.13-4.68V27.31c0-3.36,0-4-.05-4.66s-.23-1.07-.71-1.17a4.14,4.14,0,0,0-.69-.08.19.19,0,0,1-.18-.18c0-.13.1-.18.36-.18.74,0,2.14,0,2.27,0s1.55,0,2.24,0c.25,0,.36,0,.36.18a.22.22,0,0,1-.18.18,2.51,2.51,0,0,0-.56.05c-.61.13-.74.43-.79,1.2s0,1.3,0,4.66Z" transform="translate(-10.52 -11.61)"/><path class="cls-1" d="M214.23,27.31c0-3.36,0-4,0-4.66s-.18-1.09-.92-1.2a7.58,7.58,0,0,0-.76-.05.22.22,0,0,1-.18-.18c0-.13.1-.18.36-.18,1,0,2.42,0,2.59,0,.48,0,2.16,0,3.18,0,2.87,0,3.89.89,4.28,1.22a3.65,3.65,0,0,1,1.12,2.6c0,3.1-2.34,5.17-5.78,5.17a5.35,5.35,0,0,1-.64,0,.24.24,0,0,1-.23-.2c0-.18.13-.23.59-.23,2.42,0,4.15-1.53,4.15-3.49a4.39,4.39,0,0,0-1.27-3.28,3.8,3.8,0,0,0-3-1,7.69,7.69,0,0,0-1.25.15c-.13,0-.18.18-.18.41v8.81c0,2.09,0,3.79.1,4.68.08.64.2,1,.89,1.15a8.21,8.21,0,0,0,1,.1.17.17,0,0,1,.18.18c0,.1-.1.18-.36.18-1.22,0-2.7-.08-2.8-.08s-1.53.08-2.21.08c-.23,0-.36-.05-.36-.18a.17.17,0,0,1,.18-.18,3.19,3.19,0,0,0,.69-.1c.43-.1.49-.51.58-1.15a43.85,43.85,0,0,0,.13-4.68Z" transform="translate(-10.52 -11.61)"/><path class="cls-1" d="M231.51,21.48c.28-.71.38-.84.53-.84s.31.3.54.79c.41.91,4,9.85,5.37,13.13.81,1.93,1.43,2.21,1.91,2.37a3.12,3.12,0,0,0,.89.13c.13,0,.28.05.28.18s-.25.18-.51.18-2,0-3.54-.05c-.43,0-.79,0-.79-.15s.05-.1.15-.15a.41.41,0,0,0,.2-.58l-2-5c-.05-.1-.08-.13-.21-.13h-5.17a.24.24,0,0,0-.23.18L227.67,35a4.45,4.45,0,0,0-.33,1.45c0,.43.38.58.76.58h.21c.18,0,.23.08.23.18s-.13.18-.33.18c-.53,0-1.76-.08-2-.08s-1.35.08-2.26.08c-.28,0-.43-.05-.43-.18a.2.2,0,0,1,.2-.18,6.5,6.5,0,0,0,.66,0c1-.13,1.45-.89,1.88-2Zm2.5,9c.1,0,.1-.05.08-.15l-2.21-5.93q-.19-.49-.38,0l-2.09,5.93c0,.1,0,.15.08.15Z" transform="translate(-10.52 -11.61)"/><line class="cls-2" x1="171.31" y1="7.22" x2="171.31" y2="28.55"/><rect class="cls-1" x="4.01" y="22.85" width="22.9" height="1.89"/><path class="cls-3" d="M40.28,18.91c-2.45-2.4-6.75-.9-11.63.66a.86.86,0,0,1-.81-.19,4.73,4.73,0,0,0-.66-.46,2.34,2.34,0,0,0-.83-4.33l.86-1.11a.35.35,0,0,0,0-.4L26.14,11.7a.2.2,0,0,0-.16-.08.2.2,0,0,0-.16.08l-1.07,1.38a.34.34,0,0,0,0,.4l.86,1.11a2.34,2.34,0,0,0-.83,4.33,4.76,4.76,0,0,0-.66.46.86.86,0,0,1-.81.19c-4.88-1.56-9.19-3.06-11.63-.66-2.93,2.87.48,7.52,1.55,9.44a9.22,9.22,0,0,1,1.29,4.15H37.44a9.22,9.22,0,0,1,1.29-4.15C39.79,26.43,43.21,21.78,40.28,18.91Zm-17.78,12c-.89.06-1.62-.76-1.9-1.88l.73-1.7a.42.42,0,0,0-.1-.48l-2.3-2.3c-.13-.13-.25-.14-.31,0l-1.09,2.3a.43.43,0,0,0,.12.48l1.72,1.74c.36,1.37-.57,1.86-1.09,1.86-1.82,0-3.28-2.48-4.77-5s-2-4.37-.88-5.76c1.84-2.33,6.68-.49,10.44,1.23a4.05,4.05,0,0,0,.42,1.91C25.48,27.67,24.14,30.8,22.49,30.91Zm16-5c-1.49,2.57-2.95,5-4.77,5-.52,0-1.45-.5-1.09-1.86l1.72-1.74a.43.43,0,0,0,.13-.48l-1.09-2.3c-.06-.14-.18-.13-.31,0l-2.3,2.3a.42.42,0,0,0-.1.48l.73,1.7c-.28,1.12-1,1.94-1.9,1.88-1.65-.11-3-3.24-1-7.67a4,4,0,0,0,.42-1.91c3.76-1.71,8.6-3.55,10.44-1.23C40.44,21.5,39.93,23.35,38.46,25.87Z" transform="translate(-10.52 -11.61)"/><path class="cls-1" d="M54.28,58.16a5.62,5.62,0,0,1-2.81-.67A8.31,8.31,0,0,1,51,55c.09-.13.36-.16.43-.05a3.28,3.28,0,0,0,3.1,2.68,2,2,0,0,0,2.25-2.07A2.7,2.7,0,0,0,55.29,53l-1.71-1.12a3.84,3.84,0,0,1-1.94-3.1c0-1.71,1.33-3.1,3.67-3.1a7,7,0,0,1,1.67.23,2.41,2.41,0,0,0,.63.11,7.87,7.87,0,0,1,.32,2.2c-.07.11-.36.16-.45.05a2.36,2.36,0,0,0-2.45-2,1.89,1.89,0,0,0-2.14,2,2.83,2.83,0,0,0,1.53,2.21l1.44.9a4.06,4.06,0,0,1,2.25,3.46C58.12,56.81,56.62,58.16,54.28,58.16Z" transform="translate(-10.52 -11.61)"/><path class="cls-1" d="M65.66,50.83a1,1,0,0,1,.27.72c0,.32-.18.67-.4.67a.31.31,0,0,1-.25-.13,2.46,2.46,0,0,0-1.8-1A2.6,2.6,0,0,0,61,54a3,3,0,0,0,2.9,3.08,2.2,2.2,0,0,0,2-1.08.28.28,0,0,1,.32.25,3.28,3.28,0,0,1-3,1.84,3.49,3.49,0,0,1-2.47-.92,3.59,3.59,0,0,1-1-2.66,4,4,0,0,1,4.36-4A4.5,4.5,0,0,1,65.66,50.83Z" transform="translate(-10.52 -11.61)"/><path class="cls-1" d="M67.84,47.71c0-1.06,0-1.17-.56-1.49l-.18-.11a.27.27,0,0,1,0-.36A12.88,12.88,0,0,0,69,45a.2.2,0,0,1,.18.11c0,.54-.05,1.44-.05,2.23v3.78c0,.16,0,.31.07.34a4.09,4.09,0,0,1,2.43-.94A2.1,2.1,0,0,1,74,52.85v3c0,1.3,0,1.49.68,1.57l.49.05a.32.32,0,0,1,0,.45c-.65,0-1.17-.05-1.8-.05s-1.19,0-1.67.05a.31.31,0,0,1,0-.45l.36-.05c.67-.11.68-.27.68-1.57V53.28c0-1.15-.56-1.93-1.71-1.93a2.16,2.16,0,0,0-1.4.49c-.32.27-.38.36-.38,1v3c0,1.3,0,1.48.68,1.57l.38.05c.13.07.09.4,0,.45-.54,0-1.06-.05-1.69-.05s-1.19,0-1.76.05a.31.31,0,0,1,0-.45l.45-.05c.67-.07.68-.27.68-1.57Z" transform="translate(-10.52 -11.61)"/><path class="cls-1" d="M83.64,54.25a3.68,3.68,0,0,1-3.8,3.87,3.56,3.56,0,0,1-3.69-3.71A3.78,3.78,0,0,1,80,50.52,3.6,3.6,0,0,1,83.64,54.25Zm-3.87-3.19c-1.19,0-2.07,1.13-2.07,3.11,0,1.64.74,3.4,2.32,3.4s2.07-1.66,2.07-3S81.48,51.06,79.77,51.06Z" transform="translate(-10.52 -11.61)"/><path class="cls-1" d="M92.39,54.25a3.68,3.68,0,0,1-3.8,3.87,3.56,3.56,0,0,1-3.69-3.71,3.78,3.78,0,0,1,3.83-3.89A3.6,3.6,0,0,1,92.39,54.25Zm-3.87-3.19c-1.19,0-2.07,1.13-2.07,3.11,0,1.64.74,3.4,2.32,3.4s2.07-1.66,2.07-3S90.23,51.06,88.52,51.06Z" transform="translate(-10.52 -11.61)"/><path class="cls-1" d="M95.93,55.85c0,1.3,0,1.48.68,1.57l.43.05a.32.32,0,0,1,0,.45c-.59,0-1.12-.05-1.75-.05s-1.19,0-1.73.05a.31.31,0,0,1,0-.45l.41-.05c.67-.09.68-.27.68-1.57V47.71c0-1.06,0-1.17-.56-1.49l-.18-.11a.27.27,0,0,1,0-.36A12.87,12.87,0,0,0,95.81,45a.2.2,0,0,1,.18.11c0,.54-.05,1.44-.05,2.23Z" transform="translate(-10.52 -11.61)"/><path class="cls-1" d="M110.08,54.25a3.68,3.68,0,0,1-3.8,3.87,3.56,3.56,0,0,1-3.69-3.71,3.78,3.78,0,0,1,3.83-3.89A3.6,3.6,0,0,1,110.08,54.25Zm-3.87-3.19c-1.19,0-2.07,1.13-2.07,3.11,0,1.64.74,3.4,2.32,3.4s2.07-1.66,2.07-3S107.92,51.06,106.21,51.06Z" transform="translate(-10.52 -11.61)"/><path class="cls-1" d="M114.06,51.53c-.31,0-.31,0-.31.52v3.8c0,1.3,0,1.51.68,1.57l.65.05a.32.32,0,0,1,0,.45c-.81,0-1.33-.05-2-.05s-1.19,0-1.73.05a.32.32,0,0,1,0-.45l.41-.05c.67-.09.68-.27.68-1.57v-3.8c0-.49,0-.52-.36-.52h-.63a.25.25,0,0,1-.05-.34l.77-.38a.41.41,0,0,0,.27-.36,8.07,8.07,0,0,1,.56-3.17A3.54,3.54,0,0,1,116.22,45c1,0,1.76.43,1.76,1.08a.69.69,0,0,1-.68.65.51.51,0,0,1-.43-.22,2,2,0,0,0-1.44-.79,1.39,1.39,0,0,0-1.28,1,9.55,9.55,0,0,0-.4,3v.52c0,.49,0,.5.31.5h2.05a.56.56,0,0,1-.13.76Z" transform="translate(-10.52 -11.61)"/><path class="cls-1" d="M122.74,48.72c0-1.91,0-2.21-1.1-2.3l-.45,0c-.11-.07-.07-.4,0-.45.9,0,1.51.05,2.27.05s1.33,0,2.23-.05c.11.05.14.38,0,.45l-.45,0c-1.06.09-1.1.4-1.1,2.3v6.41c0,1.91,0,2.16,1.1,2.29l.45.05c.11.07.07.4,0,.45-.9,0-1.51-.05-2.23-.05s-1.37,0-2.27.05a.35.35,0,0,1,0-.45l.45-.05c1.06-.13,1.1-.38,1.1-2.29Z" transform="translate(-10.52 -11.61)"/><path class="cls-1" d="M128.06,52.7c0-.7,0-.79-.49-1.12l-.16-.11a.25.25,0,0,1,0-.32,9.83,9.83,0,0,0,1.8-.88.21.21,0,0,1,.2.13c0,.41,0,.68,0,.85a.19.19,0,0,0,.2.2,4.93,4.93,0,0,1,2.52-.92,2,2,0,0,1,2.11,2.23v3.1c0,1.3,0,1.48.68,1.57l.4.05a.31.31,0,0,1,0,.45c-.54,0-1.06-.05-1.69-.05s-1.19,0-1.67.05a.32.32,0,0,1,0-.45l.34-.05c.67-.11.68-.27.68-1.57V53.17a1.56,1.56,0,0,0-1.69-1.78,2,2,0,0,0-1.53.63,1.51,1.51,0,0,0-.27,1.08v2.75c0,1.3,0,1.46.68,1.57l.32.05a.31.31,0,0,1,0,.45c-.49,0-1-.05-1.64-.05s-1.19,0-1.69.05a.32.32,0,0,1,0-.45l.38-.05c.67-.09.68-.27.68-1.57Z" transform="translate(-10.52 -11.61)"/><path class="cls-1" d="M139,51.53c-.31,0-.32.05-.32.43v3.37c0,1,.13,2,1.31,2a1.38,1.38,0,0,0,.49-.09c.16-.05.4-.25.45-.25s.22.2.18.31a2.49,2.49,0,0,1-1.89.83c-1.55,0-1.87-.86-1.87-1.94V52.05c0-.49,0-.52-.38-.52h-.5a.3.3,0,0,1-.05-.38,3.58,3.58,0,0,0,1.15-.56,4.44,4.44,0,0,0,.76-1.06c.09,0,.31,0,.38.09v.81c0,.32,0,.34.32.34h2a.57.57,0,0,1,0,.76Z" transform="translate(-10.52 -11.61)"/><path class="cls-1" d="M143.62,53.26c-.47,0-.49,0-.49.49,0,1.82,1.06,3.37,3,3.37a1.94,1.94,0,0,0,1.66-.88.24.24,0,0,1,.32.22,3.15,3.15,0,0,1-2.83,1.67,3.23,3.23,0,0,1-2.61-1.19,3.82,3.82,0,0,1-.76-2.34,3.78,3.78,0,0,1,3.62-4.07,2.36,2.36,0,0,1,2.56,2.14,1.11,1.11,0,0,1-.07.47c-.05.11-.31.13-1.06.13Zm1.12-.54c1.33,0,1.73-.07,1.87-.18s.11-.11.11-.34c0-.5-.34-1.13-1.39-1.13a2.11,2.11,0,0,0-2,1.57s0,.09.13.09Z" transform="translate(-10.52 -11.61)"/><path class="cls-1" d="M150.17,52.7c0-.7,0-.79-.49-1.12l-.16-.11a.25.25,0,0,1,0-.32,13.93,13.93,0,0,0,1.82-.88c.09,0,.14.05.14.13v1c0,.09,0,.14.05.16a3.64,3.64,0,0,1,2-1.08.75.75,0,0,1,.81.72.8.8,0,0,1-.77.83.69.69,0,0,1-.4-.13,1.48,1.48,0,0,0-.79-.29.8.8,0,0,0-.65.36,2.74,2.74,0,0,0-.23,1.39v2.45c0,1.3,0,1.51.72,1.57l.65.05a.32.32,0,0,1,0,.45c-.85,0-1.37-.05-2-.05s-1.19,0-1.66.05a.31.31,0,0,1,0-.45l.34-.05c.67-.11.68-.27.68-1.57Z" transform="translate(-10.52 -11.61)"/><path class="cls-1" d="M156.14,52.7c0-.7,0-.79-.49-1.12l-.16-.11a.25.25,0,0,1,0-.32,9.83,9.83,0,0,0,1.8-.88.21.21,0,0,1,.2.13c0,.41,0,.68,0,.85a.19.19,0,0,0,.2.2,4.93,4.93,0,0,1,2.52-.92,2,2,0,0,1,2.11,2.23v3.1c0,1.3,0,1.48.68,1.57l.4.05a.31.31,0,0,1,0,.45c-.54,0-1.06-.05-1.69-.05s-1.19,0-1.67.05a.32.32,0,0,1,0-.45l.34-.05c.67-.11.68-.27.68-1.57V53.17a1.56,1.56,0,0,0-1.69-1.78,2,2,0,0,0-1.53.63,1.51,1.51,0,0,0-.27,1.08v2.75c0,1.3,0,1.46.68,1.57l.32.05a.31.31,0,0,1,0,.45c-.49,0-1-.05-1.64-.05s-1.19,0-1.69.05a.32.32,0,0,1,0-.45l.38-.05c.67-.09.68-.27.68-1.57Z" transform="translate(-10.52 -11.61)"/><path class="cls-1" d="M168.1,54.14c.27-.09.31-.25.31-.52l0-.83c0-.67-.2-1.57-1.31-1.57-.5,0-1.12.25-1.15.81,0,.29,0,.5-.18.61a1.94,1.94,0,0,1-1,.34.23.23,0,0,1-.25-.25c0-.94,2-2.21,3.35-2.21s1.93.76,1.87,2.11l-.11,3.13c0,.83.13,1.57.83,1.57a1,1,0,0,0,.45-.11c.09-.05.18-.13.23-.13s.13.11.13.23a1.89,1.89,0,0,1-1.51.79,1.44,1.44,0,0,1-1.17-.56c-.07-.11-.18-.25-.29-.25a2.77,2.77,0,0,0-.7.36,2.67,2.67,0,0,1-1.3.45,1.86,1.86,0,0,1-1.26-.41,1.68,1.68,0,0,1-.56-1.26c0-.7.34-1.12,1.49-1.53ZM167,57.31a2,2,0,0,0,1.1-.45c.22-.22.22-.47.23-.85l0-1.06c0-.2-.07-.23-.18-.23a3.39,3.39,0,0,0-.74.18c-1.06.36-1.58.63-1.58,1.33A1.08,1.08,0,0,0,167,57.31Z" transform="translate(-10.52 -11.61)"/><path class="cls-1" d="M174.34,51.53c-.31,0-.32.05-.32.43v3.37c0,1,.13,2,1.31,2a1.38,1.38,0,0,0,.49-.09c.16-.05.4-.25.45-.25s.22.2.18.31a2.49,2.49,0,0,1-1.89.83c-1.55,0-1.87-.86-1.87-1.94V52.05c0-.49,0-.52-.38-.52h-.5a.3.3,0,0,1-.05-.38,3.57,3.57,0,0,0,1.15-.56,4.44,4.44,0,0,0,.76-1.06c.09,0,.31,0,.38.09v.81c0,.32,0,.34.32.34h2a.57.57,0,0,1,0,.76Z" transform="translate(-10.52 -11.61)"/><path class="cls-1" d="M178.39,52.7c0-.7,0-.79-.49-1.12l-.16-.11a.25.25,0,0,1,0-.32,12.38,12.38,0,0,0,1.85-.88c.09,0,.16,0,.18.11,0,.63-.07,1.49-.07,2.23v3.24c0,1.3,0,1.48.68,1.57l.38.05a.32.32,0,0,1,0,.45c-.54,0-1.06-.05-1.69-.05s-1.19,0-1.69.05a.32.32,0,0,1,0-.45l.38-.05c.67-.09.68-.27.68-1.57Zm1.49-5.13a.94.94,0,0,1-1.87,0,.94.94,0,0,1,1-1A.9.9,0,0,1,179.88,47.57Z" transform="translate(-10.52 -11.61)"/><path class="cls-1" d="M189.37,54.25a3.68,3.68,0,0,1-3.8,3.87,3.56,3.56,0,0,1-3.69-3.71,3.78,3.78,0,0,1,3.83-3.89A3.6,3.6,0,0,1,189.37,54.25Zm-3.87-3.19c-1.19,0-2.07,1.13-2.07,3.11,0,1.64.74,3.4,2.32,3.4s2.07-1.66,2.07-3S187.21,51.06,185.5,51.06Z" transform="translate(-10.52 -11.61)"/><path class="cls-1" d="M191.76,52.7c0-.7,0-.79-.49-1.12l-.16-.11a.25.25,0,0,1,0-.32,9.83,9.83,0,0,0,1.8-.88.21.21,0,0,1,.2.13c0,.41,0,.68,0,.85a.19.19,0,0,0,.2.2,4.93,4.93,0,0,1,2.52-.92,2,2,0,0,1,2.11,2.23v3.1c0,1.3,0,1.48.68,1.57l.4.05a.32.32,0,0,1,0,.45c-.54,0-1.06-.05-1.69-.05s-1.19,0-1.67.05a.32.32,0,0,1,0-.45l.34-.05c.67-.11.68-.27.68-1.57V53.17a1.56,1.56,0,0,0-1.69-1.78,2,2,0,0,0-1.53.63,1.51,1.51,0,0,0-.27,1.08v2.75c0,1.3,0,1.46.68,1.57l.32.05a.32.32,0,0,1,0,.45c-.49,0-1-.05-1.64-.05s-1.19,0-1.69.05a.32.32,0,0,1,0-.45l.38-.05c.67-.09.68-.27.68-1.57Z" transform="translate(-10.52 -11.61)"/><path class="cls-1" d="M203.72,54.14c.27-.09.31-.25.31-.52l0-.83c0-.67-.2-1.57-1.31-1.57-.5,0-1.12.25-1.15.81,0,.29,0,.5-.18.61a1.94,1.94,0,0,1-1,.34.23.23,0,0,1-.25-.25c0-.94,2-2.21,3.35-2.21s1.93.76,1.87,2.11l-.11,3.13c0,.83.13,1.57.83,1.57a1,1,0,0,0,.45-.11c.09-.05.18-.13.23-.13s.13.11.13.23a1.89,1.89,0,0,1-1.51.79,1.44,1.44,0,0,1-1.17-.56c-.07-.11-.18-.25-.29-.25a2.76,2.76,0,0,0-.7.36,2.67,2.67,0,0,1-1.3.45,1.86,1.86,0,0,1-1.26-.41,1.68,1.68,0,0,1-.56-1.26c0-.7.34-1.12,1.49-1.53Zm-1.12,3.17a2,2,0,0,0,1.1-.45c.22-.22.22-.47.23-.85L204,55c0-.2-.07-.23-.18-.23a3.39,3.39,0,0,0-.74.18c-1.06.36-1.58.63-1.58,1.33A1.08,1.08,0,0,0,202.6,57.31Z" transform="translate(-10.52 -11.61)"/><path class="cls-1" d="M209.64,55.85c0,1.3,0,1.48.68,1.57l.43.05a.32.32,0,0,1,0,.45c-.59,0-1.12-.05-1.75-.05s-1.19,0-1.73.05a.31.31,0,0,1,0-.45l.41-.05c.67-.09.68-.27.68-1.57V47.71c0-1.06,0-1.17-.56-1.49l-.18-.11a.27.27,0,0,1,0-.36,12.87,12.87,0,0,0,1.94-.76.2.2,0,0,1,.18.11c0,.54-.05,1.44-.05,2.23Z" transform="translate(-10.52 -11.61)"/><path class="cls-1" d="M219.93,54.14c.27-.09.31-.25.31-.52l0-.83c0-.67-.2-1.57-1.31-1.57-.5,0-1.12.25-1.15.81,0,.29,0,.5-.18.61a1.94,1.94,0,0,1-1,.34.23.23,0,0,1-.25-.25c0-.94,2-2.21,3.35-2.21s1.93.76,1.87,2.11l-.11,3.13c0,.83.13,1.57.83,1.57a1,1,0,0,0,.45-.11c.09-.05.18-.13.23-.13s.13.11.13.23a1.89,1.89,0,0,1-1.51.79,1.44,1.44,0,0,1-1.17-.56c-.07-.11-.18-.25-.29-.25a2.75,2.75,0,0,0-.7.36,2.66,2.66,0,0,1-1.3.45,1.86,1.86,0,0,1-1.26-.41,1.68,1.68,0,0,1-.56-1.26c0-.7.34-1.12,1.49-1.53Zm-1.12,3.17a2,2,0,0,0,1.1-.45c.22-.22.22-.47.23-.85l0-1.06c0-.2-.07-.23-.18-.23a3.38,3.38,0,0,0-.74.18c-1.06.36-1.59.63-1.59,1.33A1.09,1.09,0,0,0,218.82,57.31Z" transform="translate(-10.52 -11.61)"/><path class="cls-1" d="M224.7,52.7c0-.7,0-.79-.49-1.12l-.16-.11a.25.25,0,0,1,0-.32,9.86,9.86,0,0,0,1.8-.88.21.21,0,0,1,.2.13c0,.41,0,.68,0,.85a.19.19,0,0,0,.2.2,4.93,4.93,0,0,1,2.52-.92,2,2,0,0,1,2.11,2.23v3.1c0,1.3,0,1.48.68,1.57l.4.05a.32.32,0,0,1,0,.45c-.54,0-1.06-.05-1.69-.05s-1.19,0-1.67.05a.32.32,0,0,1,0-.45l.34-.05c.67-.11.68-.27.68-1.57V53.17a1.56,1.56,0,0,0-1.69-1.78,2,2,0,0,0-1.53.63A1.51,1.51,0,0,0,226,53.1v2.75c0,1.3,0,1.46.68,1.57l.32.05a.32.32,0,0,1,0,.45c-.49,0-1-.05-1.64-.05s-1.19,0-1.69.05a.32.32,0,0,1,0-.45l.38-.05c.67-.09.68-.27.68-1.57Z" transform="translate(-10.52 -11.61)"/><path class="cls-1" d="M240,55.24c0,1.42,0,2.09.52,2.09a3,3,0,0,0,.77-.18c.13,0,.14.49,0,.58a13.45,13.45,0,0,0-2.38.58c-.11,0-.2-.05-.2-.14v-.31a2,2,0,0,0,0-.56h-.07a3.75,3.75,0,0,1-2.27.83A3.31,3.31,0,0,1,233,54.67a4.09,4.09,0,0,1,4.36-4.14,3.72,3.72,0,0,1,1.21.16c.09,0,.11-.11.11-.25V47.71c0-1.06,0-1.17-.56-1.49l-.18-.11a.27.27,0,0,1,0-.36A12.83,12.83,0,0,0,239.9,45a.2.2,0,0,1,.18.11c0,.54-.05,1.44-.05,2.23Zm-1.33-2.7a1.06,1.06,0,0,0-.2-.7,1.88,1.88,0,0,0-1.51-.76c-1.64,0-2.49,1.42-2.49,3s.92,3.19,2.68,3.19a2.2,2.2,0,0,0,1.39-.5,1.09,1.09,0,0,0,.13-.67Z" transform="translate(-10.52 -11.61)"/><path class="cls-1" d="M249.83,55.17c0,1.89,0,2.13,1.19,2.25l.49.05a.35.35,0,0,1,0,.45c-1,0-1.62-.05-2.34-.05s-1.4,0-2.2.05a.35.35,0,0,1,0-.45l.38-.05c1-.14,1.08-.36,1.08-2.25V48.53c0-1.53,0-1.84-.85-1.93l-.65-.07a.3.3,0,0,1,0-.45,28.4,28.4,0,0,1,3.56-.14,6.51,6.51,0,0,1,3.46.72,3.11,3.11,0,0,1,1.44,2.7,3.05,3.05,0,0,1-1.8,2.86,6.08,6.08,0,0,1-2.48.54c-.13-.05-.13-.32,0-.36a2.8,2.8,0,0,0,2.65-3,2.66,2.66,0,0,0-2.9-2.88c-1,0-1,.07-1,.65Z" transform="translate(-10.52 -11.61)"/><path class="cls-1" d="M258.26,55.22c0,1.24.31,2.07,1.67,2.07a2.36,2.36,0,0,0,1.46-.54,1.26,1.26,0,0,0,.36-1v-3c0-1.17-.13-1.21-.67-1.42l-.23-.09a.24.24,0,0,1,0-.4,7.15,7.15,0,0,0,2.11-.32c.09,0,.14.05.16.13,0,.34-.05.9-.05,1.57v3c0,1.42.05,2,.56,2a3.43,3.43,0,0,0,.7-.09c.11.09.13.45,0,.52a9.35,9.35,0,0,0-2.36.67.25.25,0,0,1-.22-.13v-.74c0-.16-.05-.25-.16-.25a4.71,4.71,0,0,1-2.49.94c-1.58,0-2.18-.79-2.18-2.25v-3c0-1.13,0-1.3-.54-1.53l-.22-.09a.27.27,0,0,1,0-.4,6.35,6.35,0,0,0,1.93-.32c.11,0,.16.05.18.13a13.56,13.56,0,0,0-.05,1.57Z" transform="translate(-10.52 -11.61)"/><path class="cls-1" d="M266,47.71c0-1.06,0-1.17-.56-1.49l-.18-.11a.27.27,0,0,1,0-.36,16.64,16.64,0,0,0,2-.76.2.2,0,0,1,.18.11c0,.63-.07,1.44-.07,2.23v3.4c0,.31.07.38.18.38a4.15,4.15,0,0,1,2.07-.59A3.37,3.37,0,0,1,273,54.05a3.94,3.94,0,0,1-4.14,4.07,5.13,5.13,0,0,1-1.53-.23,3.84,3.84,0,0,0-.76-.23.56.56,0,0,0-.38.27s0,0-.07,0a.2.2,0,0,1-.18-.11c0-.25,0-.59,0-1.53Zm1.33,7.71a2.49,2.49,0,0,0,.45,1.57,1.71,1.71,0,0,0,1.37.59c1.69,0,2.36-1.44,2.36-3,0-1.85-1-3.29-2.74-3.29a2.35,2.35,0,0,0-1.22.29c-.18.13-.22.32-.22,1Z" transform="translate(-10.52 -11.61)"/><path class="cls-1" d="M276.53,55.85c0,1.3,0,1.48.68,1.57l.43.05a.32.32,0,0,1,0,.45c-.59,0-1.12-.05-1.75-.05s-1.19,0-1.73.05a.32.32,0,0,1,0-.45l.41-.05c.67-.09.68-.27.68-1.57V47.71c0-1.06,0-1.17-.56-1.49l-.18-.11a.27.27,0,0,1,0-.36A12.87,12.87,0,0,0,276.4,45a.2.2,0,0,1,.18.11c0,.54-.05,1.44-.05,2.23Z" transform="translate(-10.52 -11.61)"/><path class="cls-1" d="M279.82,52.7c0-.7,0-.79-.49-1.12l-.16-.11a.25.25,0,0,1,0-.32,12.37,12.37,0,0,0,1.85-.88c.09,0,.16,0,.18.11,0,.63-.07,1.49-.07,2.23v3.24c0,1.3,0,1.48.68,1.57l.38.05a.32.32,0,0,1,0,.45c-.54,0-1.06-.05-1.69-.05s-1.19,0-1.69.05a.32.32,0,0,1,0-.45l.38-.05c.67-.09.68-.27.68-1.57Zm1.49-5.13a.94.94,0,0,1-1.87,0,.94.94,0,0,1,1-1A.9.9,0,0,1,281.31,47.57Z" transform="translate(-10.52 -11.61)"/><path class="cls-1" d="M289.29,50.83a1,1,0,0,1,.27.72c0,.32-.18.67-.4.67a.32.32,0,0,1-.25-.13,2.45,2.45,0,0,0-1.8-1,2.6,2.6,0,0,0-2.49,2.9,3,3,0,0,0,2.9,3.08,2.2,2.2,0,0,0,2-1.08.28.28,0,0,1,.32.25,3.28,3.28,0,0,1-3,1.84,3.49,3.49,0,0,1-2.47-.92,3.59,3.59,0,0,1-1-2.66,4,4,0,0,1,4.36-4A4.5,4.5,0,0,1,289.29,50.83Z" transform="translate(-10.52 -11.61)"/><path class="cls-1" d="M301.71,53.69c-.13-.4-.2-.45-.74-.45h-2.72c-.45,0-.56.05-.68.43l-.63,1.89a6.9,6.9,0,0,0-.4,1.49c0,.22.09.32.52.36l.59.05a.29.29,0,0,1,0,.45c-.47,0-1,0-1.87-.05-.59,0-1.24,0-1.73.05a.36.36,0,0,1,0-.45l.59-.05a1.2,1.2,0,0,0,1.08-.88c.32-.83.83-2,1.58-4l1.84-4.86a2.59,2.59,0,0,0,.31-1.28,2,2,0,0,0,.94-.68.26.26,0,0,1,.27.16c.23.79.52,1.62.79,2.41l2.47,7.24c.52,1.55.76,1.82,1.53,1.91l.49.05a.35.35,0,0,1,0,.45c-.74,0-1.37-.05-2.18-.05s-1.55,0-2.07.05a.3.3,0,0,1,0-.45l.52-.05c.38,0,.63-.14.63-.32a3.68,3.68,0,0,0-.23-1Zm-3.57-1.6c-.14.41-.13.43.38.43h2.21c.52,0,.56-.07.4-.56l-1-2.94a11.63,11.63,0,0,0-.41-1.13h0a11.11,11.11,0,0,0-.43,1.06Z" transform="translate(-10.52 -11.61)"/><path class="cls-1" d="M307.31,52.05c0-.49,0-.52-.36-.52h-.63a.25.25,0,0,1-.05-.34l.77-.38a.41.41,0,0,0,.27-.36,7.2,7.2,0,0,1,.61-2.79,3.66,3.66,0,0,1,3.31-2.23,2.66,2.66,0,0,1,2,.79A3.64,3.64,0,0,1,315.95,45c.94,0,1.71.43,1.71,1.08a.67.67,0,0,1-.65.65.53.53,0,0,1-.43-.23,2,2,0,0,0-1.4-.79,1.39,1.39,0,0,0-1.3,1,9,9,0,0,0-.41,3.08v.52c0,.49,0,.5.31.5h2.05a.55.55,0,0,1-.13.76h-1.93c-.31,0-.31,0-.31.52v3.8c0,1.3,0,1.51.68,1.57l.58.05a.32.32,0,0,1,0,.45c-.74,0-1.26-.05-1.89-.05s-1.19,0-1.73.05a.32.32,0,0,1,0-.45l.41-.05c.67-.09.68-.27.68-1.57v-3.8c0-.49,0-.52-.36-.52h-2.83c-.31,0-.31,0-.31.52v3.8c0,1.3,0,1.51.68,1.57l.65.05a.32.32,0,0,1,0,.45c-.81,0-1.33-.05-2-.05s-1.19,0-1.73.05a.32.32,0,0,1,0-.45l.41-.05c.67-.09.68-.27.68-1.57Zm4.55-1.28a.3.3,0,0,0,.27-.32,10.58,10.58,0,0,1,.45-3.12,1.91,1.91,0,0,0-1.78-1.28c-2,0-2.16,2.23-2.16,4.12v.09c0,.49,0,.5.52.5Z" transform="translate(-10.52 -11.61)"/><path class="cls-1" d="M319.91,54.14c.27-.09.31-.25.31-.52l0-.83c0-.67-.2-1.57-1.31-1.57-.5,0-1.12.25-1.15.81,0,.29,0,.5-.18.61a1.94,1.94,0,0,1-1,.34.23.23,0,0,1-.25-.25c0-.94,2-2.21,3.35-2.21s1.93.76,1.87,2.11l-.11,3.13c0,.83.13,1.57.83,1.57a1,1,0,0,0,.45-.11c.09-.05.18-.13.23-.13s.13.11.13.23a1.89,1.89,0,0,1-1.51.79,1.44,1.44,0,0,1-1.17-.56c-.07-.11-.18-.25-.29-.25a2.76,2.76,0,0,0-.7.36,2.67,2.67,0,0,1-1.3.45,1.86,1.86,0,0,1-1.26-.41,1.68,1.68,0,0,1-.56-1.26c0-.7.34-1.12,1.5-1.53Zm-1.12,3.17a2,2,0,0,0,1.1-.45c.22-.22.22-.47.23-.85l0-1.06c0-.2-.07-.23-.18-.23a3.4,3.4,0,0,0-.74.18c-1.06.36-1.58.63-1.58,1.33A1.08,1.08,0,0,0,318.79,57.31Z" transform="translate(-10.52 -11.61)"/><path class="cls-1" d="M324.68,52.7c0-.7,0-.79-.49-1.12l-.16-.11a.25.25,0,0,1,0-.32,12.38,12.38,0,0,0,1.85-.88c.09,0,.16,0,.18.11,0,.63-.07,1.49-.07,2.23v3.24c0,1.3,0,1.48.68,1.57l.38.05a.32.32,0,0,1,0,.45c-.54,0-1.06-.05-1.69-.05s-1.19,0-1.69.05a.32.32,0,0,1,0-.45l.38-.05c.67-.09.68-.27.68-1.57Zm1.49-5.13a.94.94,0,0,1-1.87,0,.94.94,0,0,1,1-1A.9.9,0,0,1,326.17,47.57Z" transform="translate(-10.52 -11.61)"/><path class="cls-1" d="M329.3,52.7c0-.7,0-.79-.49-1.12l-.16-.11a.25.25,0,0,1,0-.32,14,14,0,0,0,1.82-.88c.09,0,.14.05.14.13v1c0,.09,0,.14.05.16a3.63,3.63,0,0,1,2-1.08.75.75,0,0,1,.81.72.8.8,0,0,1-.77.83.69.69,0,0,1-.4-.13,1.48,1.48,0,0,0-.79-.29.8.8,0,0,0-.65.36,2.74,2.74,0,0,0-.23,1.39v2.45c0,1.3,0,1.51.72,1.57l.65.05a.31.31,0,0,1,0,.45c-.85,0-1.37-.05-2-.05s-1.19,0-1.66.05a.32.32,0,0,1,0-.45l.34-.05c.67-.11.68-.27.68-1.57Z" transform="translate(-10.52 -11.61)"/><path class="cls-1" d="M338.45,50.85a4.21,4.21,0,0,1,.29,1.46.31.31,0,0,1-.43.05A1.76,1.76,0,0,0,336.72,51a1.06,1.06,0,0,0-1.15,1.1c0,.74.76,1.13,1.39,1.49,1,.54,1.84,1.15,1.84,2.43s-1.26,2.05-2.59,2.05a3,3,0,0,1-1.93-.54,5.36,5.36,0,0,1-.22-1.82.31.31,0,0,1,.41,0c.31,1,.88,1.85,1.91,1.85a1.11,1.11,0,0,0,1.21-1.15c0-.83-.72-1.28-1.39-1.66-1-.59-1.78-1.22-1.78-2.21,0-1.31,1.08-2.05,2.45-2.05A3.19,3.19,0,0,1,338.45,50.85Z" transform="translate(-10.52 -11.61)"/></svg>